<mxfile host="Electron" modified="2024-06-02T11:25:26.358Z" agent="Mozilla/5.0 (Windows NT 10.0; Win64; x64) AppleWebKit/537.36 (KHTML, like Gecko) draw.io/22.1.2 Chrome/114.0.5735.289 Electron/25.9.4 Safari/537.36" etag="uR0tprvBePMG4iEaiMUn" version="22.1.2" type="device">
  <diagram name="Page-1" id="ckWOzo5wXRxlPBgAqUoa">
    <mxGraphModel dx="1206" dy="809" grid="1" gridSize="10" guides="1" tooltips="1" connect="1" arrows="1" fold="1" page="1" pageScale="1" pageWidth="850" pageHeight="1100" math="0" shadow="0">
      <root>
        <mxCell id="0" />
        <mxCell id="1" parent="0" />
        <mxCell id="S9IHN6o3Uame4CbkHT0S-2" value="SDI Backend" style="shape=module;align=left;spacingLeft=20;align=center;verticalAlign=top;whiteSpace=wrap;html=1;" parent="1" vertex="1">
          <mxGeometry x="520" y="90" width="290" height="390" as="geometry" />
        </mxCell>
        <mxCell id="S9IHN6o3Uame4CbkHT0S-8" value="" style="fontStyle=0;labelPosition=right;verticalLabelPosition=middle;align=left;verticalAlign=middle;spacingLeft=2;html=1;" parent="1" vertex="1">
          <mxGeometry x="520" y="200" width="20" height="20" as="geometry" />
        </mxCell>
        <mxCell id="S9IHN6o3Uame4CbkHT0S-10" value="" style="shape=providedRequiredInterface;html=1;verticalLabelPosition=bottom;sketch=0;rotation=-179;" parent="1" vertex="1">
          <mxGeometry x="430" y="180" width="24.95" height="25" as="geometry" />
        </mxCell>
        <mxCell id="S9IHN6o3Uame4CbkHT0S-13" value="" style="endArrow=none;startArrow=none;endFill=0;startFill=0;endSize=8;html=1;verticalAlign=bottom;labelBackgroundColor=none;strokeWidth=1;rounded=0;entryX=1;entryY=0.5;entryDx=0;entryDy=0;entryPerimeter=0;exitX=1;exitY=0.5;exitDx=0;exitDy=0;" parent="1" source="S9IHN6o3Uame4CbkHT0S-9" target="S9IHN6o3Uame4CbkHT0S-10" edge="1">
          <mxGeometry width="160" relative="1" as="geometry">
            <mxPoint x="340" y="380" as="sourcePoint" />
            <mxPoint x="500" y="380" as="targetPoint" />
          </mxGeometry>
        </mxCell>
        <mxCell id="S9IHN6o3Uame4CbkHT0S-14" value="" style="endArrow=none;startArrow=none;endFill=0;startFill=0;endSize=8;html=1;verticalAlign=bottom;labelBackgroundColor=none;strokeWidth=1;rounded=0;entryX=0;entryY=0.5;entryDx=0;entryDy=0;exitX=0;exitY=0.5;exitDx=0;exitDy=0;exitPerimeter=0;" parent="1" source="S9IHN6o3Uame4CbkHT0S-10" target="S9IHN6o3Uame4CbkHT0S-8" edge="1">
          <mxGeometry width="160" relative="1" as="geometry">
            <mxPoint x="424.95" y="234" as="sourcePoint" />
            <mxPoint x="514.95" y="226" as="targetPoint" />
          </mxGeometry>
        </mxCell>
        <mxCell id="S9IHN6o3Uame4CbkHT0S-18" value="" style="group" parent="1" vertex="1" connectable="0">
          <mxGeometry x="140" y="140" width="250" height="320" as="geometry" />
        </mxCell>
        <mxCell id="S9IHN6o3Uame4CbkHT0S-1" value="SDI Frontend" style="shape=module;align=left;spacingLeft=20;align=center;verticalAlign=top;whiteSpace=wrap;html=1;" parent="S9IHN6o3Uame4CbkHT0S-18" vertex="1">
          <mxGeometry width="240" height="320" as="geometry" />
        </mxCell>
        <mxCell id="S9IHN6o3Uame4CbkHT0S-7" value="" style="group" parent="S9IHN6o3Uame4CbkHT0S-18" vertex="1" connectable="0">
          <mxGeometry x="30" y="50" width="190" height="80" as="geometry" />
        </mxCell>
        <mxCell id="S9IHN6o3Uame4CbkHT0S-3" value="UI" style="shape=module;align=left;spacingLeft=20;align=center;verticalAlign=top;whiteSpace=wrap;html=1;" parent="S9IHN6o3Uame4CbkHT0S-7" vertex="1">
          <mxGeometry width="190" height="80" as="geometry" />
        </mxCell>
        <mxCell id="S9IHN6o3Uame4CbkHT0S-4" value="HTML" style="shape=note2;boundedLbl=1;whiteSpace=wrap;html=1;size=25;verticalAlign=top;align=center;" parent="S9IHN6o3Uame4CbkHT0S-7" vertex="1">
          <mxGeometry x="30" y="20" width="40" height="50" as="geometry" />
        </mxCell>
        <mxCell id="S9IHN6o3Uame4CbkHT0S-5" value="CSS" style="shape=note2;boundedLbl=1;whiteSpace=wrap;html=1;size=25;verticalAlign=top;align=center;" parent="S9IHN6o3Uame4CbkHT0S-7" vertex="1">
          <mxGeometry x="80" y="20" width="40" height="50" as="geometry" />
        </mxCell>
        <mxCell id="S9IHN6o3Uame4CbkHT0S-6" value="&lt;font style=&quot;font-size: 8px;&quot;&gt;JS/AJAX&lt;/font&gt;" style="shape=note2;boundedLbl=1;whiteSpace=wrap;html=1;size=25;verticalAlign=top;align=center;" parent="S9IHN6o3Uame4CbkHT0S-7" vertex="1">
          <mxGeometry x="130" y="20" width="40" height="50" as="geometry" />
        </mxCell>
        <mxCell id="S9IHN6o3Uame4CbkHT0S-9" value="" style="fontStyle=0;labelPosition=right;verticalLabelPosition=middle;align=left;verticalAlign=middle;spacingLeft=2;html=1;" parent="S9IHN6o3Uame4CbkHT0S-18" vertex="1">
          <mxGeometry x="230" y="60" width="20" height="20" as="geometry" />
        </mxCell>
        <mxCell id="S9IHN6o3Uame4CbkHT0S-15" value="OpenLayers" style="shape=module;align=left;spacingLeft=20;align=center;verticalAlign=top;whiteSpace=wrap;html=1;" parent="S9IHN6o3Uame4CbkHT0S-18" vertex="1">
          <mxGeometry x="75" y="230" width="100" height="50" as="geometry" />
        </mxCell>
        <mxCell id="S9IHN6o3Uame4CbkHT0S-16" style="edgeStyle=orthogonalEdgeStyle;rounded=0;orthogonalLoop=1;jettySize=auto;html=1;exitX=0.5;exitY=1;exitDx=0;exitDy=0;entryX=0.5;entryY=0;entryDx=0;entryDy=0;dashed=1;" parent="S9IHN6o3Uame4CbkHT0S-18" source="S9IHN6o3Uame4CbkHT0S-3" target="S9IHN6o3Uame4CbkHT0S-15" edge="1">
          <mxGeometry relative="1" as="geometry" />
        </mxCell>
        <mxCell id="S9IHN6o3Uame4CbkHT0S-21" value="" style="fontStyle=0;labelPosition=right;verticalLabelPosition=middle;align=left;verticalAlign=middle;spacingLeft=2;" parent="S9IHN6o3Uame4CbkHT0S-18" vertex="1">
          <mxGeometry y="110" width="20" height="20" as="geometry" />
        </mxCell>
        <mxCell id="S9IHN6o3Uame4CbkHT0S-20" value="" style="ellipse;" parent="1" vertex="1">
          <mxGeometry x="60" y="270" width="20" height="20" as="geometry" />
        </mxCell>
        <mxCell id="S9IHN6o3Uame4CbkHT0S-22" value="" style="endArrow=none;startArrow=none;endFill=0;startFill=0;endSize=8;html=1;verticalAlign=bottom;labelBackgroundColor=none;strokeWidth=1;rounded=0;entryX=0;entryY=0.5;entryDx=0;entryDy=0;exitX=1;exitY=0.5;exitDx=0;exitDy=0;" parent="1" source="S9IHN6o3Uame4CbkHT0S-20" target="S9IHN6o3Uame4CbkHT0S-21" edge="1">
          <mxGeometry width="160" relative="1" as="geometry">
            <mxPoint x="90" y="290" as="sourcePoint" />
            <mxPoint x="130" y="272" as="targetPoint" />
          </mxGeometry>
        </mxCell>
        <mxCell id="JmTrOGIjP1sGgQpxNKks-11" style="edgeStyle=orthogonalEdgeStyle;rounded=0;orthogonalLoop=1;jettySize=auto;html=1;exitX=0.5;exitY=1;exitDx=0;exitDy=0;entryX=0.5;entryY=0;entryDx=0;entryDy=0;dashed=1;" edge="1" parent="1" source="JmTrOGIjP1sGgQpxNKks-1" target="JmTrOGIjP1sGgQpxNKks-5">
          <mxGeometry relative="1" as="geometry" />
        </mxCell>
        <mxCell id="JmTrOGIjP1sGgQpxNKks-1" value="GeoNetwork" style="shape=module;align=left;spacingLeft=20;align=center;verticalAlign=top;whiteSpace=wrap;html=1;" vertex="1" parent="1">
          <mxGeometry x="690" y="150" width="100" height="50" as="geometry" />
        </mxCell>
        <mxCell id="JmTrOGIjP1sGgQpxNKks-9" style="edgeStyle=orthogonalEdgeStyle;rounded=0;orthogonalLoop=1;jettySize=auto;html=1;exitX=0.5;exitY=1;exitDx=0;exitDy=0;entryX=0.5;entryY=0;entryDx=0;entryDy=0;dashed=1;" edge="1" parent="1" source="JmTrOGIjP1sGgQpxNKks-2" target="JmTrOGIjP1sGgQpxNKks-3">
          <mxGeometry relative="1" as="geometry" />
        </mxCell>
        <mxCell id="JmTrOGIjP1sGgQpxNKks-2" value="ElasticSearch" style="shape=module;align=left;spacingLeft=20;align=center;verticalAlign=top;whiteSpace=wrap;html=1;" vertex="1" parent="1">
          <mxGeometry x="565" y="255" width="100" height="50" as="geometry" />
        </mxCell>
        <mxCell id="JmTrOGIjP1sGgQpxNKks-3" value="Postgres" style="shape=module;align=left;spacingLeft=20;align=center;verticalAlign=top;whiteSpace=wrap;html=1;" vertex="1" parent="1">
          <mxGeometry x="565" y="360" width="100" height="50" as="geometry" />
        </mxCell>
        <mxCell id="JmTrOGIjP1sGgQpxNKks-4" value="Traefik" style="shape=module;align=left;spacingLeft=20;align=center;verticalAlign=top;whiteSpace=wrap;html=1;" vertex="1" parent="1">
          <mxGeometry x="565" y="150" width="100" height="50" as="geometry" />
        </mxCell>
        <mxCell id="JmTrOGIjP1sGgQpxNKks-10" style="edgeStyle=orthogonalEdgeStyle;rounded=0;orthogonalLoop=1;jettySize=auto;html=1;exitX=0;exitY=1;exitDx=10;exitDy=0;exitPerimeter=0;entryX=1;entryY=1;entryDx=0;entryDy=0;dashed=1;" edge="1" parent="1" source="JmTrOGIjP1sGgQpxNKks-5" target="JmTrOGIjP1sGgQpxNKks-2">
          <mxGeometry relative="1" as="geometry" />
        </mxCell>
        <mxCell id="JmTrOGIjP1sGgQpxNKks-5" value="Kibana" style="shape=module;align=left;spacingLeft=20;align=center;verticalAlign=top;whiteSpace=wrap;html=1;" vertex="1" parent="1">
          <mxGeometry x="690" y="255" width="100" height="50" as="geometry" />
        </mxCell>
        <mxCell id="JmTrOGIjP1sGgQpxNKks-7" style="edgeStyle=orthogonalEdgeStyle;rounded=0;orthogonalLoop=1;jettySize=auto;html=1;exitX=1.01;exitY=0.658;exitDx=0;exitDy=0;entryX=1;entryY=0.5;entryDx=0;entryDy=0;exitPerimeter=0;dashed=1;" edge="1" parent="1" source="JmTrOGIjP1sGgQpxNKks-1" target="JmTrOGIjP1sGgQpxNKks-3">
          <mxGeometry relative="1" as="geometry">
            <Array as="points">
              <mxPoint x="800" y="183" />
              <mxPoint x="800" y="385" />
            </Array>
          </mxGeometry>
        </mxCell>
        <mxCell id="JmTrOGIjP1sGgQpxNKks-8" style="edgeStyle=orthogonalEdgeStyle;rounded=0;orthogonalLoop=1;jettySize=auto;html=1;exitX=0;exitY=1;exitDx=10;exitDy=0;exitPerimeter=0;entryX=0.858;entryY=0.02;entryDx=0;entryDy=0;entryPerimeter=0;dashed=1;" edge="1" parent="1" source="JmTrOGIjP1sGgQpxNKks-1" target="JmTrOGIjP1sGgQpxNKks-2">
          <mxGeometry relative="1" as="geometry" />
        </mxCell>
        <mxCell id="JmTrOGIjP1sGgQpxNKks-13" style="edgeStyle=orthogonalEdgeStyle;rounded=0;orthogonalLoop=1;jettySize=auto;html=1;exitX=0.75;exitY=0;exitDx=0;exitDy=0;entryX=0.417;entryY=-0.077;entryDx=0;entryDy=0;entryPerimeter=0;dashed=1;" edge="1" parent="1" source="JmTrOGIjP1sGgQpxNKks-4" target="JmTrOGIjP1sGgQpxNKks-1">
          <mxGeometry relative="1" as="geometry">
            <Array as="points">
              <mxPoint x="640" y="130" />
              <mxPoint x="732" y="130" />
            </Array>
          </mxGeometry>
        </mxCell>
      </root>
    </mxGraphModel>
  </diagram>
</mxfile>
